<?xml version="1.0" encoding="utf-8"?>
<!-- Generator: Adobe Illustrator 21.1.0, SVG Export Plug-In . SVG Version: 6.00 Build 0)  -->
<svg version="1.1" baseProfile="tiny" id="Слой_1"
	 xmlns="http://www.w3.org/2000/svg" xmlns:xlink="http://www.w3.org/1999/xlink" x="0px" y="0px" viewBox="0 0 200 50"
	 overflow="scroll" xml:space="preserve">
<g>
	<path fill="#1D3B6B" d="M21.8,26.4L21.8,26.4c-0.1,2.8-0.9,4.9-2.4,6.4S15.6,35,12.8,35c-2.9,0-5.3-0.9-7.1-2.7S3,28.2,3,25.4v-4.9
		c0-2.8,0.9-5.1,2.6-6.9c1.7-1.8,4-2.7,6.8-2.7c3,0,5.2,0.7,6.8,2.2s2.5,3.6,2.7,6.4l0,0.1h-5.3c-0.1-1.5-0.4-2.7-1-3.4
		c-0.6-0.7-1.6-1.1-3.1-1.1c-1.2,0-2.2,0.5-2.9,1.5s-1.1,2.3-1.1,3.9v4.9c0,1.6,0.4,2.9,1.2,3.9s1.8,1.5,3.2,1.5
		c1.3,0,2.2-0.3,2.8-1s0.9-1.8,0.9-3.3H21.8z"/>
	<path fill="#1D3B6B" d="M23.7,25.8c0-2.6,0.7-4.8,2.2-6.4s3.6-2.5,6.2-2.5c2.7,0,4.7,0.8,6.2,2.5s2.2,3.8,2.2,6.4v0.3
		c0,2.6-0.7,4.8-2.2,6.4S34.8,35,32.2,35c-2.7,0-4.8-0.8-6.2-2.5s-2.2-3.8-2.2-6.4V25.8z M29.1,26.1c0,1.5,0.2,2.6,0.7,3.4
		c0.5,0.8,1.2,1.2,2.3,1.2c1.1,0,1.8-0.4,2.3-1.3s0.7-2,0.7-3.4v-0.3c0-1.4-0.2-2.6-0.7-3.4c-0.5-0.9-1.2-1.3-2.3-1.3
		c-1.1,0-1.8,0.4-2.3,1.3c-0.5,0.9-0.7,2-0.7,3.4V26.1z"/>
	<path fill="#1D3B6B" d="M48.1,17.2l0.2,2.3c0.5-0.8,1.2-1.5,2.1-1.9c0.8-0.5,1.8-0.7,2.9-0.7c1.1,0,2,0.2,2.8,0.7s1.4,1.2,1.8,2.2
		c0.5-0.9,1.2-1.6,2.1-2.1c0.8-0.5,1.8-0.7,3-0.7c1.7,0,3,0.6,4,1.7c1,1.2,1.5,3,1.5,5.4v10.6h-5.5V24c0-1.1-0.2-1.9-0.5-2.3
		c-0.3-0.4-0.9-0.6-1.6-0.6c-0.5,0-1,0.1-1.4,0.3c-0.4,0.2-0.7,0.4-1,0.8c0,0.2,0,0.3,0,0.5s0,0.3,0,0.4v11.6h-5.4V24
		c0-1.1-0.2-1.9-0.5-2.3s-0.9-0.6-1.6-0.6c-0.5,0-0.9,0.1-1.3,0.3c-0.4,0.2-0.7,0.4-1,0.8v12.5H43V17.2H48.1z"/>
	<path fill="#1D3B6B" d="M87.5,26.3c0,2.6-0.6,4.7-1.8,6.3c-1.2,1.6-2.8,2.4-5,2.4c-0.8,0-1.6-0.2-2.2-0.5c-0.7-0.3-1.2-0.8-1.7-1.4
		v8.3h-5.4V17.2h5.1l0.2,1.9c0.5-0.7,1.1-1.3,1.7-1.7s1.4-0.6,2.3-0.6c2.2,0,3.8,0.8,5,2.5c1.2,1.7,1.8,3.9,1.8,6.6V26.3z M82.1,26
		c0-1.5-0.2-2.7-0.6-3.5s-1.1-1.3-2.1-1.3c-0.6,0-1.1,0.1-1.6,0.3s-0.8,0.6-1,1v7.3c0.3,0.4,0.6,0.7,1,0.8c0.4,0.2,0.9,0.3,1.6,0.3
		c1,0,1.6-0.4,2.1-1.2c0.4-0.8,0.6-1.9,0.6-3.3V26z"/>
	<path fill="#1D3B6B" d="M100.4,32.6c-0.6,0.8-1.2,1.4-2.1,1.8c-0.8,0.4-1.7,0.6-2.7,0.6c-1.8,0-3.2-0.6-4.2-1.7
		c-1-1.2-1.5-3-1.5-5.4V17.2h5.4v10.7c0,1,0.2,1.7,0.6,2.2c0.4,0.5,0.9,0.7,1.6,0.7c0.6,0,1.1-0.1,1.5-0.2c0.4-0.2,0.8-0.4,1.1-0.7
		V17.2h5.4v17.4h-4.8L100.4,32.6z"/>
	<path fill="#1D3B6B" d="M119.1,26.6h-9.7v-4.2h9.7V26.6z"/>
	<path fill="#48B381" d="M136.1,28.4c0-0.8-0.3-1.5-0.8-1.9s-1.5-0.9-2.9-1.4c-3-0.9-5.2-1.9-6.6-3s-2.1-2.6-2.1-4.6
		c0-2,0.9-3.6,2.6-4.8c1.7-1.2,3.9-1.8,6.5-1.8c2.6,0,4.7,0.7,6.4,2c1.7,1.3,2.5,3.1,2.4,5.2l0,0.1h-5.3c0-0.9-0.3-1.7-1-2.3
		c-0.6-0.6-1.5-0.9-2.6-0.9c-1.1,0-2,0.2-2.6,0.7s-0.9,1.1-0.9,1.8c0,0.7,0.3,1.2,0.9,1.7c0.6,0.4,1.8,0.9,3.5,1.6
		c2.7,0.8,4.7,1.8,6,2.9c1.3,1.2,2,2.8,2,4.8c0,2.1-0.8,3.7-2.4,4.8c-1.6,1.2-3.7,1.7-6.4,1.7c-2.7,0-5-0.7-6.9-2
		c-1.9-1.3-2.9-3.3-2.8-5.8l0-0.1h5.3c0,1.4,0.4,2.3,1.1,2.9s1.8,0.9,3.3,0.9c1.1,0,2-0.2,2.5-0.7C135.8,29.8,136.1,29.2,136.1,28.4
		z"/>
	<path fill="#48B381" d="M149.4,19.4c0.5-0.8,1.2-1.4,1.9-1.8c0.8-0.4,1.6-0.7,2.5-0.7c1.8,0,3.2,0.6,4.3,1.9s1.5,3.2,1.5,5.8v10
		h-5.4V24.6c0-1.3-0.2-2.3-0.6-2.8c-0.4-0.5-1-0.8-1.8-0.8c-0.5,0-1,0.1-1.4,0.2c-0.4,0.2-0.7,0.4-1,0.7v12.7H144V9.5h5.4V19.4z"/>
	<path fill="#48B381" d="M162,25.8c0-2.6,0.7-4.8,2.2-6.4s3.6-2.5,6.2-2.5c2.7,0,4.7,0.8,6.2,2.5s2.2,3.8,2.2,6.4v0.3
		c0,2.6-0.7,4.8-2.2,6.4s-3.5,2.5-6.2,2.5c-2.7,0-4.8-0.8-6.2-2.5s-2.2-3.8-2.2-6.4V25.8z M167.4,26.1c0,1.5,0.2,2.6,0.7,3.4
		c0.5,0.8,1.2,1.2,2.3,1.2c1.1,0,1.8-0.4,2.3-1.3s0.7-2,0.7-3.4v-0.3c0-1.4-0.2-2.6-0.7-3.4c-0.5-0.9-1.2-1.3-2.3-1.3
		c-1.1,0-1.8,0.4-2.3,1.3c-0.5,0.9-0.7,2-0.7,3.4V26.1z"/>
	<path fill="#48B381" d="M197.4,26.3c0,2.6-0.6,4.7-1.8,6.3c-1.2,1.6-2.8,2.4-5,2.4c-0.8,0-1.6-0.2-2.2-0.5
		c-0.7-0.3-1.2-0.8-1.7-1.4v8.3h-5.4V17.2h5.1l0.2,1.9c0.5-0.7,1.1-1.3,1.7-1.7s1.4-0.6,2.3-0.6c2.2,0,3.8,0.8,5,2.5
		c1.2,1.7,1.8,3.9,1.8,6.6V26.3z M192,26c0-1.5-0.2-2.7-0.6-3.5s-1.1-1.3-2.1-1.3c-0.6,0-1.1,0.1-1.6,0.3c-0.4,0.2-0.8,0.6-1,1v7.3
		c0.3,0.4,0.6,0.7,1,0.8c0.4,0.2,0.9,0.3,1.6,0.3c1,0,1.6-0.4,2.1-1.2c0.4-0.8,0.6-1.9,0.6-3.3V26z"/>
</g>
<g>
</g>
<g>
</g>
<g>
</g>
<g>
</g>
<g>
</g>
<g>
</g>
</svg>
